<?xml version="1.0" encoding="utf-8"?>
<!-- Generator: Adobe Illustrator 24.0.1, SVG Export Plug-In . SVG Version: 6.00 Build 0)  -->
<svg version="1.1" id="Layer_1" xmlns="http://www.w3.org/2000/svg" xmlns:xlink="http://www.w3.org/1999/xlink" x="0px" y="0px"
	 viewBox="0 0 76.2 71.2" style="enable-background:new 0 0 76.2 71.2;" xml:space="preserve">
<style type="text/css">
	.st0{fill:#0F0F0F;}
</style>
<g>
	<path class="st0" d="M52.1,12.6v15.2c0,3.2-1.8,4.8-5.4,4.8h-5c-3.6,0-5.5-1.6-5.5-4.8V12.6c0-3.2,1.8-4.8,5.5-4.8h5
		C50.3,7.8,52.1,9.4,52.1,12.6z M45.6,26.9V13.5c0-0.6-0.3-0.8-0.9-0.8h-1c-0.6,0-0.9,0.3-0.9,0.8v13.4c0,0.6,0.3,0.8,0.9,0.8h1
		C45.3,27.7,45.6,27.5,45.6,26.9z"/>
	<path class="st0" d="M70.7,12.6v15.2c0,3.2-1.8,4.8-5.4,4.8h-4.9c-3.6,0-5.5-1.6-5.5-4.8V12.6c0-3.2,1.8-4.8,5.5-4.8h4.9
		C68.9,7.8,70.7,9.4,70.7,12.6z M64.2,26.9V13.5c0-0.6-0.3-0.8-0.9-0.8h-1c-0.6,0-0.9,0.3-0.9,0.8v13.4c0,0.6,0.3,0.8,0.9,0.8h1
		C63.9,27.7,64.2,27.5,64.2,26.9z"/>
</g>
<g>
	<path class="st0" d="M52.1,44.7v15.2c0,3.2-1.8,4.8-5.4,4.8h-5c-3.6,0-5.5-1.6-5.5-4.8V44.7c0-3.2,1.8-4.8,5.5-4.8h5
		C50.3,39.9,52.1,41.5,52.1,44.7z M45.6,59V45.6c0-0.6-0.3-0.8-0.9-0.8h-1c-0.6,0-0.9,0.3-0.9,0.8V59c0,0.6,0.3,0.8,0.9,0.8h1
		C45.3,59.8,45.6,59.6,45.6,59z"/>
	<path class="st0" d="M70.7,44.7v15.2c0,3.2-1.8,4.8-5.4,4.8h-4.9c-3.6,0-5.5-1.6-5.5-4.8V44.7c0-3.2,1.8-4.8,5.5-4.8h4.9
		C68.9,39.9,70.7,41.5,70.7,44.7z M64.2,59V45.6c0-0.6-0.3-0.8-0.9-0.8h-1c-0.6,0-0.9,0.3-0.9,0.8V59c0,0.6,0.3,0.8,0.9,0.8h1
		C63.9,59.8,64.2,59.6,64.2,59z"/>
</g>
<g>
	<path class="st0" d="M15.9,7.4v24.4H9.2V12.1H5.8V7.4H15.9z"/>
	<path class="st0" d="M28.2,7.4v24.4h-6.7V12.1H18V7.4H28.2z"/>
	<path class="st0" d="M17.1,40.3v24.4h-6.7V45H6.9v-4.7H17.1z"/>
	<path class="st0" d="M29.3,40.3v24.4h-6.7V45h-3.5v-4.7H29.3z"/>
</g>
</svg>
